<?xml version="1.0" standalone="no"?>
<!DOCTYPE svg PUBLIC "-//W3C//DTD SVG 20010904//EN"
 "http://www.w3.org/TR/2001/REC-SVG-20010904/DTD/svg10.dtd">
<svg version="1.0" xmlns="http://www.w3.org/2000/svg"
 width="300.000000pt" height="150.000000pt" viewBox="0 0 300.000000 150.000000"
 preserveAspectRatio="xMidYMid meet">

<g transform="translate(0.000000,150.000000) scale(0.100000,-0.100000)"
fill="#000000" stroke="none">
<path d="M2701 1440 c-36 -140 -187 -283 -426 -403 -49 -25 -99 -52 -110 -60
-19 -15 -19 -16 7 -63 46 -87 62 -152 62 -249 1 -191 -89 -351 -258 -459 -53
-34 -81 -66 -104 -119 -25 -58 -12 -59 47 -5 51 48 144 103 206 124 44 14 -7
14 -56 0 -29 -9 -55 -16 -57 -16 -15 0 34 38 127 99 181 118 226 186 219 327
-4 69 -10 94 -38 148 -29 59 -32 69 -21 94 27 61 71 110 178 199 165 137 229
236 249 384 9 64 -8 64 -25 -1z"/>
<path d="M280 1457 c0 -44 38 -157 71 -212 33 -55 78 -100 247 -252 50 -46 88
-90 102 -119 l22 -45 -33 -72 c-24 -53 -34 -90 -37 -140 -9 -145 32 -208 217
-333 72 -48 129 -89 127 -91 -2 -2 -29 3 -61 12 -32 8 -61 13 -63 10 -4 -4
103 -55 115 -55 11 0 123 -92 142 -116 18 -23 21 -24 21 -8 -1 58 -58 128
-175 213 -25 19 -67 63 -92 99 -118 165 -134 367 -43 546 35 70 41 62 -95 132
-254 132 -409 280 -440 422 -8 37 -25 43 -25 9z"/>
<path d="M2857 1453 c-4 -3 -7 -14 -7 -24 0 -31 -49 -131 -91 -185 -21 -28
-64 -71 -95 -95 -81 -65 -135 -161 -157 -279 l-7 -35 45 52 c25 28 74 72 109
97 82 58 138 123 178 203 27 56 32 77 36 169 4 100 3 112 -11 97z"/>
<path d="M140 1373 c0 -94 20 -168 64 -238 35 -54 116 -136 163 -165 16 -9 55
-46 87 -81 52 -57 57 -61 51 -34 -34 150 -63 202 -164 293 -96 87 -134 140
-165 227 -12 36 -26 68 -29 72 -4 3 -7 -30 -7 -74z"/>
<path d="M2928 1149 c-37 -63 -112 -128 -230 -200 -54 -34 -109 -75 -123 -91
-23 -28 -75 -119 -75 -133 0 -3 26 15 58 40 33 25 101 62 156 85 54 22 111 49
127 61 64 45 124 176 117 251 l-3 33 -27 -46z"/>
<path d="M54 1124 c15 -133 96 -231 222 -271 73 -24 150 -67 196 -111 15 -14
30 -23 33 -21 10 10 -45 105 -80 139 -19 19 -69 55 -110 80 -100 60 -175 124
-221 188 -21 28 -40 52 -43 52 -2 0 -1 -25 3 -56z"/>
<path d="M1375 1020 c-27 -16 -83 -37 -123 -46 -87 -19 -220 -73 -275 -111
-73 -50 -116 -127 -117 -209 0 -49 43 -141 95 -202 48 -55 72 -58 50 -5 -26
61 -30 144 -10 186 19 40 98 87 147 87 l28 0 -3 -72 c-1 -40 -1 -129 1 -198
l2 -125 52 -60 c28 -33 54 -60 57 -60 3 0 13 20 21 45 23 69 24 70 104 70 l72
0 29 -61 c22 -46 33 -59 47 -56 9 3 64 33 121 67 l104 62 71 112 c39 61 78
128 88 148 17 36 16 39 -4 96 -12 32 -22 62 -22 66 0 3 15 6 33 6 46 0 95 -34
114 -78 18 -43 20 -172 3 -216 -16 -44 -6 -42 42 6 61 60 88 123 88 201 0 109
-58 195 -168 251 -71 36 -214 76 -270 76 -31 0 -70 9 -106 25 -46 20 -72 25
-139 24 -72 0 -88 -4 -132 -29z m335 -417 c0 -5 -13 -30 -28 -58 -18 -33 -42
-59 -74 -78 l-47 -29 -54 31 c-43 25 -56 38 -61 63 -3 17 -4 33 -2 36 5 4 215
39 249 41 9 1 17 -2 17 -6z m-427 -39 c23 -7 22 -41 -3 -82 -35 -57 -80 -22
-80 61 0 38 0 39 33 32 17 -4 40 -9 50 -11z"/>
<path d="M2439 970 c-32 -33 -68 -79 -80 -101 l-21 -42 33 -71 c37 -78 51
-194 30 -235 -8 -13 -8 -21 -2 -21 13 0 36 45 46 90 5 19 9 103 9 185 1 143 2
153 28 203 15 29 25 52 21 52 -3 0 -32 -27 -64 -60z"/>
<path d="M532 968 c21 -39 23 -57 24 -209 2 -147 4 -171 24 -217 22 -52 48
-75 30 -26 -18 47 -11 135 16 199 52 122 51 108 16 161 -34 53 -109 134 -123
134 -5 0 1 -19 13 -42z"/>
<path d="M10 969 c0 -26 71 -160 105 -197 48 -53 139 -98 240 -117 44 -9 95
-23 114 -31 18 -8 36 -13 38 -10 9 9 -54 81 -95 110 -22 15 -74 40 -115 55
-100 38 -184 90 -240 150 -26 28 -47 46 -47 40z"/>
<path d="M2953 934 c-53 -55 -137 -109 -219 -140 -36 -13 -82 -33 -103 -43
-37 -19 -131 -112 -131 -130 0 -5 21 -1 48 9 26 10 88 28 137 40 108 25 158
53 218 120 37 41 106 175 95 185 -2 2 -22 -17 -45 -41z"/>
<path d="M110 691 c0 -11 53 -82 76 -103 37 -33 113 -58 216 -73 57 -8 113
-17 126 -20 12 -3 22 -1 22 5 0 19 -93 70 -162 90 -38 11 -99 29 -136 40 -38
11 -85 31 -105 44 -20 14 -37 22 -37 17z"/>
<path d="M2845 669 c-27 -16 -92 -38 -145 -50 -94 -21 -172 -53 -220 -89 -14
-10 -22 -21 -20 -24 3 -2 64 4 135 15 160 23 222 51 273 122 19 26 33 49 31
51 -2 2 -26 -9 -54 -25z"/>
<path d="M2470 449 c-95 -25 -111 -39 -43 -39 28 0 74 -5 101 -11 27 -7 61 -9
75 -5 34 8 46 45 21 63 -24 18 -65 16 -154 -8z"/>
<path d="M380 445 c-19 -23 -2 -49 36 -53 16 -1 72 4 124 11 l95 13 -50 18
c-27 9 -82 20 -120 23 -59 5 -73 3 -85 -12z"/>
<path d="M2375 370 c-47 -6 -48 -6 -20 -13 17 -4 53 -19 80 -33 55 -28 98 -29
103 -2 7 37 -72 60 -163 48z"/>
<path d="M510 357 c-37 -13 -52 -43 -28 -58 23 -15 48 -10 86 16 20 14 54 28
75 31 20 4 37 9 37 13 0 12 -135 10 -170 -2z"/>
<path d="M675 313 c-11 -2 -30 -6 -42 -9 -33 -6 -59 -50 -43 -69 18 -22 48
-18 61 8 6 12 23 34 37 50 26 27 25 28 -13 20z"/>
<path d="M2318 304 c12 -8 29 -28 37 -45 17 -31 45 -38 64 -15 27 32 -31 76
-98 76 l-25 0 22 -16z"/>
</g>
</svg>
